HIERARCHY
ROOT Hips
{
	OFFSET 0.000000 0.000000 0.000000 
	CHANNELS 6 Xposition Yposition Zposition Yrotation Xrotation Zrotation
	JOINT Spine
	{
		OFFSET 0.000000 0.072080 0.012321 
		CHANNELS 3 Xrotation Yrotation Zrotation
		JOINT Spine1
		{
			OFFSET 0.000000 0.126984 -0.001294 
			CHANNELS 3 Xrotation Yrotation Zrotation
			JOINT Spine2
			{
				OFFSET 0.000000 0.106559 -0.010096 
				CHANNELS 3 Xrotation Yrotation Zrotation
				JOINT Neck
				{
					OFFSET 0.000000 0.108417 -0.034017 
					CHANNELS 3 Xrotation Yrotation Zrotation
					JOINT Neck1
					{
						OFFSET 0.000000 0.033906 0.007241 
						CHANNELS 3 Xrotation Yrotation Zrotation
						JOINT Head
						{
							OFFSET 0.000000 0.031458 0.006707 
							CHANNELS 3 Xrotation Yrotation Zrotation
							End Site
							{
								OFFSET 0.000000 0.179920 0.000962 
							}
						}
					}
				}
				JOINT LeftShoulder
				{
					OFFSET 0.048002 0.079586 -0.029634 
					CHANNELS 3 Zrotation Xrotation Yrotation
					JOINT LeftArm
					{
						OFFSET 0.096243 -0.008695 -0.014012 
						CHANNELS 3 Zrotation Xrotation Yrotation
						JOINT LeftForeArm
						{
							OFFSET 0.216305 0.000000 0.000000 
							CHANNELS 3 Xrotation Zrotation Yrotation
							JOINT LeftHand
							{
								OFFSET 0.217764 0.000000 0.000000 
								CHANNELS 3 Zrotation Yrotation Xrotation
								JOINT LeftHandThumb1
								{
									OFFSET 0.018582 -0.007835 0.020476 
									CHANNELS 3 Zrotation Xrotation Yrotation
									JOINT LeftHandThumb2
									{
										OFFSET 0.026269 -0.007835 0.022186 
										CHANNELS 3 Zrotation Xrotation Yrotation
										JOINT LeftHandThumb3
										{
											OFFSET 0.035170 -0.010504 0.017018 
											CHANNELS 3 Zrotation Xrotation Yrotation
											End Site
											{
												OFFSET 0.020312 -0.007813 0.007813 
											}
										}
									}
								}
								JOINT LeftHandMiddle1
								{
									OFFSET 0.081749 0.004803 0.003358 
									CHANNELS 3 Zrotation Xrotation Yrotation
									JOINT LeftHandMiddle2
									{
										OFFSET 0.045251 0.000000 0.000000 
										CHANNELS 3 Zrotation Xrotation Yrotation
										JOINT LeftHandMiddle3
										{
											OFFSET 0.029009 0.000000 0.000000 
											CHANNELS 3 Zrotation Xrotation Yrotation
											End Site
											{
												OFFSET 0.017969 0.000000 0.000000 
											}
										}
									}
								}
								JOINT LeftHandIndex1
								{
									OFFSET 0.081207 0.004803 0.021137 
									CHANNELS 3 Zrotation Xrotation Yrotation
									JOINT LeftHandIndex2
									{
										OFFSET 0.043354 0.000000 0.000000 
										CHANNELS 3 Zrotation Xrotation Yrotation
										JOINT LeftHandIndex3
										{
											OFFSET 0.026493 0.000000 0.000000 
											CHANNELS 3 Zrotation Xrotation Yrotation
											End Site
											{
												OFFSET 0.019531 0.000000 0.000000 
											}
										}
									}
								}
								JOINT LeftHandRing1
								{
									OFFSET 0.080666 0.002509 -0.014652 
									CHANNELS 3 Zrotation Xrotation Yrotation
									JOINT LeftHandRing2
									{
										OFFSET 0.042541 0.000000 0.000000 
										CHANNELS 3 Zrotation Xrotation Yrotation
										JOINT LeftHandRing3
										{
											OFFSET 0.029009 0.000000 0.000000 
											CHANNELS 3 Zrotation Xrotation Yrotation
											End Site
											{
												OFFSET 0.015625 0.000000 0.000000 
											}
										}
									}
								}
								JOINT LeftHandPinky1
								{
									OFFSET 0.078227 -0.000612 -0.030993 
									CHANNELS 3 Zrotation Xrotation Yrotation
									JOINT LeftHandPinky2
									{
										OFFSET 0.028721 0.000000 0.000000 
										CHANNELS 3 Zrotation Xrotation Yrotation
										JOINT LeftHandPinky3
										{
											OFFSET 0.021963 0.000000 0.000000 
											CHANNELS 3 Zrotation Xrotation Yrotation
											End Site
											{
												OFFSET 0.022656 0.000000 0.000000 
											}
										}
									}
								}
							}
						}
					}
				}
				JOINT RightShoulder
				{
					OFFSET -0.047970 0.079586 -0.029634 
					CHANNELS 3 Zrotation Xrotation Yrotation
					JOINT RightArm
					{
						OFFSET -0.096274 -0.008695 -0.014012 
						CHANNELS 3 Zrotation Xrotation Yrotation
						JOINT RightForeArm
						{
							OFFSET -0.216305 0.000000 0.000000 
							CHANNELS 3 Xrotation Zrotation Yrotation
							JOINT RightHand
							{
								OFFSET -0.217764 0.000000 0.000000 
								CHANNELS 3 Zrotation Yrotation Xrotation
								JOINT RightHandThumb1
								{
									OFFSET -0.019670 -0.007318 0.019638 
									CHANNELS 3 Zrotation Xrotation Yrotation
									JOINT RightHandThumb2
									{
										OFFSET -0.025498 -0.008492 0.023179 
										CHANNELS 3 Zrotation Xrotation Yrotation
										JOINT RightHandThumb3
										{
											OFFSET -0.034504 -0.010705 0.016680 
											CHANNELS 3 Zrotation Xrotation Yrotation
											End Site
											{
												OFFSET -0.020312 -0.007813 0.007813 
											}
										}
									}
								}
								JOINT RightHandIndex1
								{
									OFFSET -0.081770 0.003825 0.021187 
									CHANNELS 3 Zrotation Xrotation Yrotation
									JOINT RightHandIndex2
									{
										OFFSET -0.042006 0.000000 0.000000 
										CHANNELS 3 Zrotation Xrotation Yrotation
										JOINT RightHandIndex3
										{
											OFFSET -0.026449 0.000000 0.000000 
											CHANNELS 3 Zrotation Xrotation Yrotation
											End Site
											{
												OFFSET -0.020312 0.000000 0.000000 
											}
										}
									}
								}
								JOINT RightHandMiddle1
								{
									OFFSET -0.084059 0.003825 0.003342 
									CHANNELS 3 Zrotation Xrotation Yrotation
									JOINT RightHandMiddle2
									{
										OFFSET -0.043881 0.000000 0.000000 
										CHANNELS 3 Zrotation Xrotation Yrotation
										JOINT RightHandMiddle3
										{
											OFFSET -0.029191 0.000000 0.000000 
											CHANNELS 3 Zrotation Xrotation Yrotation
											End Site
											{
												OFFSET -0.017969 0.000000 0.000000 
											}
										}
									}
								}
								JOINT RightHandRing1
								{
									OFFSET -0.081798 0.003030 -0.015127 
									CHANNELS 3 Zrotation Xrotation Yrotation
									JOINT RightHandRing2
									{
										OFFSET -0.042198 0.000000 0.000000 
										CHANNELS 3 Zrotation Xrotation Yrotation
										JOINT RightHandRing3
										{
											OFFSET -0.026497 0.000000 0.000000 
											CHANNELS 3 Zrotation Xrotation Yrotation
											End Site
											{
												OFFSET -0.017188 0.000000 0.000000 
											}
										}
									}
								}
								JOINT RightHandPinky1
								{
									OFFSET -0.077902 -0.000930 -0.030891 
									CHANNELS 3 Zrotation Xrotation Yrotation
									JOINT RightHandPinky2
									{
										OFFSET -0.028538 0.000000 0.000000 
										CHANNELS 3 Zrotation Xrotation Yrotation
										JOINT RightHandPinky3
										{
											OFFSET -0.021734 0.000000 0.000000 
											CHANNELS 3 Zrotation Xrotation Yrotation
											End Site
											{
												OFFSET -0.022656 0.000000 0.000000 
											}
										}
									}
								}
							}
						}
					}
				}
			}
		}
	}
	JOINT LeftUpLeg
	{
		OFFSET 0.075264 -0.025573 0.000000 
		CHANNELS 3 Xrotation Yrotation Zrotation
		JOINT LeftLeg
		{
			OFFSET 0.000000 -0.326016 -0.013516 
			CHANNELS 3 Xrotation Yrotation Zrotation
			JOINT LeftFoot
			{
				OFFSET 0.000098 -0.306172 -0.006623 
				CHANNELS 3 Xrotation Yrotation Zrotation
				JOINT LeftToeBase
				{
					OFFSET -0.001432 -0.095259 0.064705 
					CHANNELS 3 Xrotation Yrotation Zrotation
					End Site
					{
						OFFSET 0.000000 0.000000 0.079438 
					}
				}
			}
		}
	}
	JOINT RightUpLeg
	{
		OFFSET -0.075264 -0.025573 0.000000 
		CHANNELS 3 Xrotation Yrotation Zrotation
		JOINT RightLeg
		{
			OFFSET 0.000000 -0.326016 -0.013516 
			CHANNELS 3 Xrotation Yrotation Zrotation
			JOINT RightFoot
			{
				OFFSET 0.000098 -0.306172 -0.006623 
				CHANNELS 3 Xrotation Yrotation Zrotation
				JOINT RightToeBase
				{
					OFFSET -0.001432 -0.095259 0.064705 
					CHANNELS 3 Xrotation Yrotation Zrotation
					End Site
					{
						OFFSET 0.000025 0.000000 0.079438 
					}
				}
			}
		}
	}
}
MOTION
Frames: 4
Frame Time: 0.033333
-0.033170 0.725198 0.418593 1.376800 -2.698300 -5.869600 3.653500 -0.798800 2.337200 7.319200 -1.404400 3.849300 7.319200 -1.404400 3.849300 -18.878599 0.113700 0.102200 -0.000000 0.000000 -0.000000 3.055300 3.201900 -2.405900 -5.042100 11.935000 7.931900 -54.055302 35.216301 -21.315001 -0.093700 -0.001500 -38.163799 18.922501 -0.319600 7.843300 2.273400 0.206100 11.000700 0.504500 -2.480200 -6.388400 3.650800 -3.261600 -4.251000 -22.724100 1.314400 -5.379100 -26.129200 0.861900 -4.248200 -0.000000 -0.000000 -0.000000 -22.411800 1.835500 -5.141200 -24.483101 0.277200 -1.584900 -0.000000 -0.000000 -0.000000 -24.011900 -4.172800 -6.305800 -56.460701 5.338800 -9.386200 0.000000 0.000000 0.000000 -30.445900 -2.471400 -4.750200 -64.416100 9.963900 -12.865400 0.000000 -0.000000 0.000000 -1.640300 11.283800 8.810600 69.118599 3.285800 -1.094500 -0.083700 0.010800 30.173300 1.336300 -6.349200 17.192301 2.492100 0.735400 -11.706900 -0.258000 -2.738800 7.311100 -3.141100 -3.030300 4.239200 6.023100 -0.486100 3.030200 32.962601 1.340500 1.976300 0.000000 -0.000000 0.000000 17.156900 -0.064100 3.689900 21.419800 -14.184400 5.718400 -0.000000 -0.000000 -0.000000 21.250000 0.082700 2.703500 24.907600 2.454300 6.083700 0.000000 0.000000 -0.000000 27.744200 -0.592300 0.704700 26.585699 2.562700 11.323500 -0.000000 0.000000 0.000000 -22.612700 0.454800 13.256000 71.652802 -3.798100 -2.464600 16.708401 -6.554000 -4.289300 0.303000 -0.025800 0.061900 -19.287399 -4.563000 6.471500 32.579800 -1.930700 1.004300 -10.365100 -1.011800 -2.490700 -1.726300 -0.176300 0.436700 
-0.035323 0.728441 0.439838 1.116700 -3.623400 -5.254100 3.669400 -0.483500 2.187400 7.344400 -0.793000 3.562300 7.344400 -0.793000 3.562300 -18.032900 0.012300 -0.107000 -0.000000 0.000000 -0.000000 3.865500 2.540500 -2.607900 -5.451400 11.895800 8.137200 -56.051201 34.869598 -18.003700 -0.100300 -0.001200 -36.792099 17.592800 0.598200 8.522800 2.911200 0.633900 11.330200 0.504500 -2.480200 -6.388400 3.650800 -3.261600 -4.251000 -22.723801 1.314400 -5.379100 -26.128901 0.861900 -4.248200 0.000000 0.000000 0.000000 -22.411400 1.835500 -5.141200 -24.482800 0.277100 -1.584800 0.000000 -0.000000 0.000000 -24.011600 -4.172800 -6.305700 -56.460400 5.338800 -9.386200 0.000000 0.000000 0.000000 -30.445601 -2.471400 -4.750100 -64.415802 9.963800 -12.865400 0.000000 -0.000000 -0.000000 -1.613200 11.074200 9.963100 68.249702 2.834900 0.276800 -0.095200 0.010300 33.481800 1.705600 -5.511900 17.278700 2.492100 0.735400 -11.706900 -0.258100 -2.738800 7.311100 -3.141100 -3.030300 4.239300 7.789000 -0.397400 3.157000 33.937199 1.400500 2.018400 0.000000 -0.000000 0.000000 18.766800 0.042400 3.954000 22.332800 -14.017400 6.248900 -0.000000 0.000000 0.000000 22.861799 0.205900 2.996900 25.720699 2.563900 6.224500 -0.000000 0.000000 -0.000000 29.196100 -0.529300 1.066400 27.467699 2.772700 11.543100 -0.000000 0.000000 0.000000 -24.865499 0.182000 12.141000 71.363701 -3.982600 -2.462000 11.592100 -5.585300 -4.379400 -1.396400 -0.028300 0.065800 -15.952500 -4.677500 6.092200 31.815399 -1.752800 0.979900 -11.990700 -0.348000 -2.663100 -1.515100 -0.177600 0.437900 
-0.036620 0.732265 0.460471 0.634100 -4.380900 -4.439400 3.675200 -0.134300 1.934300 7.350600 -0.126900 3.147900 7.350600 -0.126900 3.147900 -17.344299 -0.098600 -0.240100 -0.000000 0.000000 -0.000000 4.603100 1.848800 -2.703100 -5.622000 11.878000 8.465700 -57.796299 34.458500 -14.879200 -0.107400 -0.001400 -35.360401 16.446100 2.499600 9.118900 3.445200 0.929500 11.511700 0.504500 -2.480200 -6.388400 3.650800 -3.261600 -4.251000 -22.723499 1.314300 -5.379000 -26.128599 0.861900 -4.248200 0.000000 0.000000 -0.000000 -22.411200 1.835400 -5.141200 -24.482500 0.277100 -1.584800 -0.000000 0.000000 0.000000 -24.011299 -4.172800 -6.305600 -56.460098 5.338700 -9.386100 -0.000000 0.000000 -0.000000 -30.445299 -2.471500 -4.750000 -64.415604 9.963800 -12.865400 -0.000000 -0.000000 -0.000000 -1.431200 10.902300 11.057700 67.362198 2.298600 1.835900 -0.104800 0.009400 37.325001 1.983100 -4.539200 17.653999 2.492100 0.735400 -11.706900 -0.258000 -2.738800 7.311200 -3.141100 -3.030300 4.239300 10.074200 -0.289000 3.292000 35.105099 1.458200 2.038900 0.000000 -0.000000 0.000000 20.732100 0.174500 4.252500 23.334900 -13.814700 6.857300 0.000000 0.000000 -0.000000 24.728701 0.360000 3.313900 26.532600 2.669200 6.349600 -0.000000 0.000000 -0.000000 30.872200 -0.443100 1.464400 28.676901 3.051700 11.816700 -0.000000 0.000000 0.000000 -26.035999 0.374900 10.516900 67.962402 -3.947800 -2.368800 7.689500 -1.593200 -5.198400 -4.708000 -0.033700 0.073000 -12.531100 -4.715600 5.440100 30.284300 -1.530000 0.927100 -13.117600 0.415500 -2.711500 -1.336300 -0.178800 0.438900 
-0.037272 0.736358 0.480563 0.120600 -4.963200 -3.535500 3.688000 0.225300 1.618400 7.371900 0.557800 2.650900 7.371900 0.557800 2.650900 -16.848000 -0.234600 -0.319900 -0.000000 0.000000 -0.000000 5.038200 1.045000 -2.745500 -5.677800 11.870800 8.804300 -59.294701 34.008900 -11.958500 -0.115400 -0.002100 -33.883999 15.176300 5.156400 9.734500 3.557000 0.924300 11.450300 0.504500 -2.480200 -6.388400 3.650800 -3.261600 -4.251000 -22.723301 1.314300 -5.379000 -26.128300 0.861800 -4.248100 0.000000 -0.000000 -0.000000 -22.410900 1.835400 -5.141200 -24.482201 0.277100 -1.584800 0.000000 0.000000 0.000000 -24.011000 -4.172900 -6.305600 -56.459801 5.338700 -9.386100 -0.000000 0.000000 0.000000 -30.445000 -2.471500 -4.750000 -64.415298 9.963700 -12.865300 0.000000 -0.000000 -0.000000 -1.243200 10.763500 11.997200 66.459801 1.641800 3.638900 -0.112600 0.008400 41.560699 1.813600 -3.387200 17.991301 2.492100 0.735400 -11.706900 -0.258100 -2.738800 7.311200 -3.141100 -3.030300 4.239200 12.726000 -0.163900 3.425700 36.386902 1.512400 2.040800 0.000000 -0.000000 0.000000 22.968000 0.331800 4.572500 24.384800 -13.586000 7.516200 0.000000 0.000000 0.000000 26.791300 0.544100 3.648200 27.325399 2.768700 6.458200 -0.000000 -0.000000 -0.000000 32.725399 -0.331400 1.891700 30.149300 3.390300 12.129300 0.000000 -0.000000 0.000000 -26.230700 0.817400 8.755800 62.006001 -3.752300 -2.193300 4.032700 3.527200 -6.542900 -6.549100 -0.036600 0.076900 -9.076200 -4.399600 4.726100 28.062901 -1.283700 0.848600 -13.810600 0.761800 -2.652600 -1.281300 -0.179100 0.439300 
